<svg width="196" height="196" viewBox="0 0 196 196" fill="none" xmlns="http://www.w3.org/2000/svg">
<g clip-path="url(#clip0)">
<path d="M108.457 20.8716L93.8071 106.144" stroke="#97CCFE" stroke-width="10.6161"/>
<path d="M18.9631 65.279L93.8071 106.144" stroke="#97CCFE" stroke-width="10.6161"/>
<path d="M31.9242 163.801L94.8632 106.266" stroke="#97CCFE" stroke-width="10.6161"/>
<path d="M132.633 181.103L92.5052 105.861" stroke="#97CCFE" stroke-width="10.6161"/>
<path d="M177.998 92.6016L93.8071 106.144" stroke="#97CCFE" stroke-width="10.6161"/>
<circle r="11.0571" transform="matrix(-0.985561 -0.169322 -0.169322 0.985561 178.402 90.9375)" fill="#0074E0" stroke="#97CCFE" stroke-width="11.0571"/>
<circle r="11.0571" transform="matrix(-0.985561 -0.169322 -0.169322 0.985561 17.6546 62.9865)" fill="#0074E0" stroke="#97CCFE" stroke-width="11.0571"/>
<circle r="11.0571" transform="matrix(-0.985561 -0.169322 -0.169322 0.985561 131.478 179.256)" fill="#0074E0" stroke="#97CCFE" stroke-width="11.0571"/>
<circle r="11.0571" transform="matrix(-0.985561 -0.169322 -0.169322 0.985561 33.3452 162.206)" fill="#0074E0" stroke="#97CCFE" stroke-width="11.0571"/>
<circle r="11.0571" transform="matrix(-0.985561 -0.169322 -0.169322 0.985561 108.655 17.0545)" fill="#0074E0" stroke="#97CCFE" stroke-width="11.0571"/>
<circle r="31.9098" transform="matrix(-1 0 0 1 93.5132 104.815)" fill="#0074E0" stroke="#97CCFE" stroke-width="10.4622"/>
<circle r="10.4622" transform="matrix(-1 0 0 1 92.8978 94.876)" fill="#97CCFE"/>
<path fill-rule="evenodd" clip-rule="evenodd" d="M120.1 130.878C116.486 119.118 105.538 110.569 92.593 110.569C80.2615 110.569 69.742 118.327 65.6489 129.229C72.4575 137.028 82.4729 141.956 93.6392 141.956C103.996 141.956 113.363 137.717 120.1 130.878Z" fill="#97CCFE"/>
<path d="M92.5672 126.79C92.7176 126.327 93.3727 126.327 93.5232 126.79L95.4148 132.612C95.4821 132.819 95.6751 132.959 95.8928 132.959H102.014C102.501 132.959 102.704 133.582 102.31 133.868L97.3573 137.467C97.1812 137.595 97.1075 137.821 97.1748 138.029L99.0664 143.85C99.2169 144.313 98.6869 144.699 98.293 144.412L93.3406 140.814C93.1644 140.686 92.9259 140.686 92.7498 140.814L87.7974 144.412C87.4035 144.699 86.8735 144.313 87.0239 143.85L88.9156 138.029C88.9829 137.821 88.9092 137.595 88.733 137.467L83.7806 133.868C83.3867 133.582 83.5892 132.959 84.076 132.959H90.1975C90.4153 132.959 90.6082 132.819 90.6755 132.612L92.5672 126.79Z" fill="#0074E0" stroke="#0074E0" stroke-width="1.0052"/>
<path d="M114.681 126.79C114.832 126.327 115.487 126.327 115.637 126.79L117.529 132.612C117.596 132.819 117.789 132.959 118.007 132.959H124.129C124.615 132.959 124.818 133.582 124.424 133.868L119.472 137.467C119.295 137.595 119.222 137.821 119.289 138.029L121.181 143.85C121.331 144.313 120.801 144.699 120.407 144.412L115.455 140.814C115.279 140.686 115.04 140.686 114.864 140.814L109.912 144.412C109.518 144.699 108.988 144.313 109.138 143.85L111.03 138.029C111.097 137.821 111.023 137.595 110.847 137.467L105.895 133.868C105.501 133.582 105.703 132.959 106.19 132.959H112.312C112.53 132.959 112.723 132.819 112.79 132.612L114.681 126.79Z" fill="#0074E0" stroke="#0074E0" stroke-width="1.0052"/>
<path d="M136.796 126.79C136.946 126.327 137.601 126.327 137.752 126.79L139.643 132.612C139.711 132.819 139.904 132.959 140.121 132.959H146.243C146.73 132.959 146.932 133.582 146.538 133.868L141.586 137.467C141.41 137.595 141.336 137.821 141.403 138.029L143.295 143.85C143.445 144.313 142.915 144.699 142.522 144.412L137.569 140.814C137.393 140.686 137.154 140.686 136.978 140.814L132.026 144.412C131.632 144.699 131.102 144.313 131.253 143.85L133.144 138.029C133.211 137.821 133.138 137.595 132.962 137.467L128.009 133.868C127.615 133.582 127.818 132.959 128.305 132.959H134.426C134.644 132.959 134.837 132.819 134.904 132.612L136.796 126.79Z" fill="#0074E0" stroke="#0074E0" stroke-width="1.0052"/>
<path d="M158.91 126.79C159.061 126.327 159.716 126.327 159.866 126.79L161.758 132.612C161.825 132.819 162.018 132.959 162.236 132.959H168.357C168.844 132.959 169.046 133.582 168.653 133.868L163.7 137.467C163.524 137.595 163.45 137.821 163.518 138.029L165.409 143.85C165.56 144.313 165.03 144.699 164.636 144.412L159.683 140.814C159.507 140.686 159.269 140.686 159.093 140.814L154.14 144.412C153.746 144.699 153.216 144.313 153.367 143.85L155.258 138.029C155.326 137.821 155.252 137.595 155.076 137.467L150.123 133.868C149.73 133.582 149.932 132.959 150.419 132.959H156.54C156.758 132.959 156.951 132.819 157.018 132.612L158.91 126.79Z" fill="#0074E0" stroke="#0074E0" stroke-width="1.0052"/>
<path d="M181.024 126.79C181.175 126.327 181.83 126.327 181.98 126.79L183.872 132.612C183.939 132.819 184.132 132.959 184.35 132.959H190.471C190.958 132.959 191.161 133.582 190.767 133.868L185.815 137.467C185.638 137.595 185.565 137.821 185.632 138.029L187.524 143.85C187.674 144.313 187.144 144.699 186.75 144.412L181.798 140.814C181.622 140.686 181.383 140.686 181.207 140.814L176.255 144.412C175.861 144.699 175.331 144.313 175.481 143.85L177.373 138.029C177.44 137.821 177.366 137.595 177.19 137.467L172.238 133.868C171.844 133.582 172.046 132.959 172.533 132.959H178.655C178.872 132.959 179.065 132.819 179.133 132.612L181.024 126.79Z" fill="#0074E0" stroke="#0074E0" stroke-width="1.0052"/>
</g>
<defs>
<clipPath id="clip0">
<rect width="196" height="196" fill="white"/>
</clipPath>
</defs>
</svg>
